<?xml version="1.0" encoding="UTF-8"?>
<!--
Kintaro BodyMap • Front Silhouette (Detailed Regions)
- Single SVG file
- Clickable regions via IDs
- Replace styles via CSS (classes: region, active, ...)
-->
<svg xmlns="http://www.w3.org/2000/svg" viewBox="0 0 600 1000" role="img" aria-label="Human silhouette front with regions">
  <defs>
    <filter id="softEdge" x="-20%" y="-20%" width="140%" height="140%">
      <feGaussianBlur stdDeviation="1.2" result="b"/>
      <feColorMatrix in="b" type="matrix"
        values="1 0 0 0 0
                0 1 0 0 0
                0 0 1 0 0
                0 0 0 .18 0" result="g"/>
      <feMerge>
        <feMergeNode in="g"/>
        <feMergeNode in="SourceGraphic"/>
      </feMerge>
    </filter>
  </defs>

  <g id="bodymap-front" filter="url(#softEdge)">
    <!-- ===== Base silhouette (non-clickable) ===== -->
    <path id="base"
      d="M300 72
         C268 72 247 92 244 121
         C240 159 266 184 300 186
         C334 184 360 159 356 121
         C353 92 332 72 300 72
         Z

         M240 196
         C220 210 210 235 211 265
         C212 301 232 327 250 345
         C244 360 240 378 240 400
         C240 436 256 468 270 490
         C260 505 254 522 252 548
         C248 596 266 640 286 682
         C294 699 296 715 292 730
         C287 754 276 777 268 798
         C262 814 262 832 274 846
         C288 862 312 861 322 846
         C330 835 330 819 324 802
         C316 780 306 757 303 732
         C301 718 304 701 312 682
         C332 640 350 596 348 548
         C347 522 340 505 330 490
         C344 468 360 436 360 400
         C360 378 356 360 350 345
         C368 327 388 301 389 265
         C390 235 380 210 360 196
         C340 220 320 234 300 234
         C280 234 260 220 240 196
         Z

         M210 280
         C176 305 160 340 156 382
         C152 430 168 474 198 508
         C214 526 232 522 234 504
         C238 470 238 438 236 404
         C235 372 238 346 246 322
         C252 304 236 268 210 280
         Z

         M390 280
         C424 305 440 340 444 382
         C448 430 432 474 402 508
         C386 526 368 522 366 504
         C362 470 362 438 364 404
         C365 372 362 346 354 322
         C348 304 364 268 390 280
         Z"
      fill="rgba(255,255,255,0.06)"
      stroke="rgba(255,255,255,0.16)"
      stroke-width="2.2"
      stroke-linejoin="round"
      stroke-linecap="round"/>

    <!-- ===== Regions (clickable) ===== -->
    <g id="regions"
       fill="rgba(0,0,0,0)"
       stroke="rgba(255,255,255,0.08)"
       stroke-width="1.4"
       stroke-linejoin="round"
       stroke-linecap="round">

      <!-- Head -->
      <path id="head" class="region region--head"
        d="M300 78
           C274 78 256 97 254 122
           C252 152 272 174 300 176
           C328 174 348 152 346 122
           C344 97 326 78 300 78 Z"/>

      <!-- Neck -->
      <path id="neck" class="region region--neck"
        d="M282 176
           C286 196 286 210 282 224
           C292 236 308 236 318 224
           C314 210 314 196 318 176
           C310 184 290 184 282 176 Z"/>

      <!-- Shoulders -->
      <path id="shoulders" class="region region--shoulders"
        d="M240 196
           C262 224 280 236 300 236
           C320 236 338 224 360 196
           C350 186 336 182 322 184
           C314 196 306 202 300 202
           C294 202 286 196 278 184
           C264 182 250 186 240 196 Z"/>

      <!-- Chest -->
      <path id="chest" class="region region--chest"
        d="M258 236
           C248 260 244 286 244 312
           C244 342 254 370 270 388
           C286 406 314 406 330 388
           C346 370 356 342 356 312
           C356 286 352 260 342 236
           C326 252 314 260 300 260
           C286 260 274 252 258 236 Z"/>

      <!-- Abdomen -->
      <path id="abdomen" class="region region--abdomen"
        d="M270 388
           C258 408 252 432 252 456
           C252 484 262 510 276 528
           C288 544 312 544 324 528
           C338 510 348 484 348 456
           C348 432 342 408 330 388
           C320 398 310 404 300 404
           C290 404 280 398 270 388 Z"/>

      <!-- Pelvis -->
      <path id="pelvis" class="region region--pelvis"
        d="M276 528
           C262 548 256 568 256 590
           C256 622 268 652 286 678
           C292 686 296 694 300 704
           C304 694 308 686 314 678
           C332 652 344 622 344 590
           C344 568 338 548 324 528
           C316 536 308 540 300 540
           C292 540 284 536 276 528 Z"/>

      <!-- Upper arm L -->
      <path id="arm_upper_l" class="region region--arm-upper"
        d="M238 238
           C214 252 200 276 198 306
           C196 336 204 362 216 382
           C226 398 242 394 244 376
           C248 344 252 316 260 290
           C266 270 258 232 238 238 Z"/>

      <!-- Upper arm R -->
      <path id="arm_upper_r" class="region region--arm-upper"
        d="M362 238
           C386 252 400 276 402 306
           C404 336 396 362 384 382
           C374 398 358 394 356 376
           C352 344 348 316 340 290
           C334 270 342 232 362 238 Z"/>

      <!-- Forearm L -->
      <path id="forearm_l" class="region region--forearm"
        d="M212 382
           C196 402 186 428 186 456
           C186 484 196 506 210 520
           C224 534 240 526 238 508
           C236 478 236 452 240 426
           C244 404 230 370 212 382 Z"/>

      <!-- Forearm R -->
      <path id="forearm_r" class="region region--forearm"
        d="M388 382
           C404 402 414 428 414 456
           C414 484 404 506 390 520
           C376 534 360 526 362 508
           C364 478 364 452 360 426
           C356 404 370 370 388 382 Z"/>

      <!-- Hand L -->
      <path id="hand_l" class="region region--hand"
        d="M204 520
           C188 532 186 554 200 570
           C216 588 244 590 258 570
           C270 554 264 532 246 520
           C232 510 216 510 204 520 Z"/>

      <!-- Hand R -->
      <path id="hand_r" class="region region--hand"
        d="M396 520
           C412 532 414 554 400 570
           C384 588 356 590 342 570
           C330 554 336 532 354 520
           C368 510 384 510 396 520 Z"/>

      <!-- Thigh L -->
      <path id="thigh_l" class="region region--thigh"
        d="M286 678
           C266 708 258 744 262 780
           C266 812 280 838 292 862
           C300 878 320 872 316 854
           C306 812 302 774 304 736
           C306 714 300 690 292 678
           C290 680 288 679 286 678 Z"/>

      <!-- Thigh R -->
      <path id="thigh_r" class="region region--thigh"
        d="M314 678
           C334 708 342 744 338 780
           C334 812 320 838 308 862
           C300 878 280 872 284 854
           C294 812 298 774 296 736
           C294 714 300 690 308 678
           C310 680 312 679 314 678 Z"/>

      <!-- Knee L -->
      <path id="knee_l" class="region region--knee"
        d="M270 804
           C258 812 252 826 254 840
           C256 856 270 866 286 864
           C300 862 308 850 306 836
           C304 822 286 798 270 804 Z"/>

      <!-- Knee R -->
      <path id="knee_r" class="region region--knee"
        d="M330 804
           C342 812 348 826 346 840
           C344 856 330 866 314 864
           C300 862 292 850 294 836
           C296 822 314 798 330 804 Z"/>

      <!-- Calf L -->
      <path id="calf_l" class="region region--calf"
        d="M268 846
           C258 866 254 888 256 910
           C258 936 268 960 282 980
           C290 992 308 990 306 974
           C304 952 302 930 304 908
           C306 888 290 840 268 846 Z"/>

      <!-- Calf R -->
      <path id="calf_r" class="region region--calf"
        d="M332 846
           C342 866 346 888 344 910
           C342 936 332 960 318 980
           C310 992 292 990 294 974
           C296 952 298 930 296 908
           C294 888 310 840 332 846 Z"/>

      <!-- Foot L -->
      <path id="foot_l" class="region region--foot"
        d="M270 980
           C246 988 236 1006 248 1022
           C262 1040 294 1040 316 1026
           C334 1014 336 996 320 988
           C304 980 288 978 270 980 Z"/>

      <!-- Foot R -->
      <path id="foot_r" class="region region--foot"
        d="M330 980
           C354 988 364 1006 352 1022
           C338 1040 306 1040 284 1026
           C266 1014 264 996 280 988
           C296 980 312 978 330 980 Z"/>
    </g>
  </g>
</svg>